<svg xmlns="http://www.w3.org/2000/svg" viewBox="0 0 1000 600" font-family="ui-sans-serif, system-ui, sans-serif">
<rect x="0" y="0" width="1000" height="600" rx="12" fill="#1a1a2e"/>
<text x="28" y="42" fill="#00d9ff" font-size="22" font-weight="700">◈ Aion Fleet — live topology</text>
<line x1="95" y1="300" x2="300" y2="300" stroke="#33456b" stroke-width="1.6"/>
<text x="197.5" y="296.0" fill="#5c6b8a" font-size="9" text-anchor="middle" style="text-transform:uppercase;letter-spacing:.05em">stdio</text>
<line x1="300" y1="300" x2="545" y2="150" stroke="#33456b" stroke-width="1.6"/>
<text x="422.5" y="221.0" fill="#5c6b8a" font-size="9" text-anchor="middle" style="text-transform:uppercase;letter-spacing:.05em">http</text>
<line x1="300" y1="300" x2="545" y2="300" stroke="#33456b" stroke-width="1.6" stroke-dasharray="5 4"/>
<text x="422.5" y="296.0" fill="#5c6b8a" font-size="9" text-anchor="middle" style="text-transform:uppercase;letter-spacing:.05em">ssh</text>
<line x1="300" y1="300" x2="545" y2="410" stroke="#33456b" stroke-width="1.6" stroke-dasharray="5 4"/>
<text x="422.5" y="351.0" fill="#5c6b8a" font-size="9" text-anchor="middle" style="text-transform:uppercase;letter-spacing:.05em">ssh</text>
<line x1="300" y1="300" x2="545" y2="520" stroke="#33456b" stroke-width="1.6" stroke-dasharray="5 4"/>
<text x="422.5" y="406.0" fill="#5c6b8a" font-size="9" text-anchor="middle" style="text-transform:uppercase;letter-spacing:.05em">ssh</text>
<line x1="545" y1="150" x2="820" y2="80" stroke="#33456b" stroke-width="1.6"/>
<text x="682.5" y="111.0" fill="#5c6b8a" font-size="9" text-anchor="middle" style="text-transform:uppercase;letter-spacing:.05em">http</text>
<line x1="545" y1="150" x2="820" y2="220" stroke="#33456b" stroke-width="1.6"/>
<text x="682.5" y="181.0" fill="#5c6b8a" font-size="9" text-anchor="middle" style="text-transform:uppercase;letter-spacing:.05em">sql</text>
<line x1="545" y1="410" x2="820" y2="410" stroke="#33456b" stroke-width="1.6"/>
<text x="682.5" y="406.0" fill="#5c6b8a" font-size="9" text-anchor="middle" style="text-transform:uppercase;letter-spacing:.05em">docker</text>
<rect x="20" y="274" width="150" height="52" rx="9" fill="#1c2740" stroke="#58a6ff" stroke-width="2"/>
<circle cx="34" cy="288" r="5" fill="#58a6ff"/>
<text x="95" y="298" fill="#f0f6fc" font-size="13" font-weight="600" text-anchor="middle">MCP Client</text>
<text x="95" y="314" fill="#8b949e" font-size="10" text-anchor="middle">Claude Desktop / Codex</text>
<rect x="225" y="274" width="150" height="52" rx="9" fill="#1c2740" stroke="#3fb950" stroke-width="2"/>
<circle cx="239" cy="288" r="5" fill="#3fb950"/>
<text x="300" y="298" fill="#f0f6fc" font-size="13" font-weight="600" text-anchor="middle">mcpbuilder</text>
<text x="300" y="314" fill="#8b949e" font-size="10" text-anchor="middle">aion-mcp · stdio + gateway</text>
<rect x="470" y="124" width="150" height="52" rx="9" fill="#1c2740" stroke="#3fb950" stroke-width="2"/>
<circle cx="484" cy="138" r="5" fill="#3fb950"/>
<text x="545" y="148" fill="#f0f6fc" font-size="13" font-weight="600" text-anchor="middle">AION Core</text>
<text x="545" y="164" fill="#8b949e" font-size="10" text-anchor="middle">Flask :5000 · wsl</text>
<rect x="745" y="54" width="150" height="52" rx="9" fill="#1c2740" stroke="#3fb950" stroke-width="2"/>
<circle cx="759" cy="68" r="5" fill="#3fb950"/>
<text x="820" y="78" fill="#f0f6fc" font-size="13" font-weight="600" text-anchor="middle">Ollama</text>
<text x="820" y="94" fill="#8b949e" font-size="10" text-anchor="middle">GPU · 192.168.0.114</text>
<rect x="745" y="194" width="150" height="52" rx="9" fill="#1c2740" stroke="#3fb950" stroke-width="2"/>
<circle cx="759" cy="208" r="5" fill="#3fb950"/>
<text x="820" y="218" fill="#f0f6fc" font-size="13" font-weight="600" text-anchor="middle">Postgres</text>
<text x="820" y="234" fill="#8b949e" font-size="10" text-anchor="middle">aion_db</text>
<rect x="470" y="274" width="150" height="52" rx="9" fill="#1c2740" stroke="#3fb950" stroke-width="2"/>
<circle cx="484" cy="288" r="5" fill="#3fb950"/>
<text x="545" y="298" fill="#f0f6fc" font-size="13" font-weight="600" text-anchor="middle">wsl (local)</text>
<text x="545" y="314" fill="#8b949e" font-size="10" text-anchor="middle">127.0.0.1</text>
<rect x="470" y="384" width="150" height="52" rx="9" fill="#1c2740" stroke="#3fb950" stroke-width="2"/>
<circle cx="484" cy="398" r="5" fill="#3fb950"/>
<text x="545" y="408" fill="#f0f6fc" font-size="13" font-weight="600" text-anchor="middle">draydev</text>
<text x="545" y="424" fill="#8b949e" font-size="10" text-anchor="middle">192.168.0.200</text>
<rect x="470" y="494" width="150" height="52" rx="9" fill="#1c2740" stroke="#3fb950" stroke-width="2"/>
<circle cx="484" cy="508" r="5" fill="#3fb950"/>
<text x="545" y="518" fill="#f0f6fc" font-size="13" font-weight="600" text-anchor="middle">ec2 (prod)</text>
<text x="545" y="534" fill="#8b949e" font-size="10" text-anchor="middle">3.238.156.148</text>
<rect x="745" y="384" width="150" height="52" rx="9" fill="#1c2740" stroke="#3fb950" stroke-width="2"/>
<circle cx="759" cy="398" r="5" fill="#3fb950"/>
<text x="820" y="408" fill="#f0f6fc" font-size="13" font-weight="600" text-anchor="middle">Kali container</text>
<text x="820" y="424" fill="#8b949e" font-size="10" text-anchor="middle">sensor · draydev</text>
<circle cx="28" cy="570" r="6" fill="#3fb950"/>
<text x="40" y="574" fill="#9fb3c8" font-size="12">up</text>
<circle cx="148" cy="570" r="6" fill="#d29922"/>
<text x="160" y="574" fill="#9fb3c8" font-size="12">degraded</text>
<circle cx="268" cy="570" r="6" fill="#f85149"/>
<text x="280" y="574" fill="#9fb3c8" font-size="12">down</text>
<circle cx="388" cy="570" r="6" fill="#8b949e"/>
<text x="400" y="574" fill="#9fb3c8" font-size="12">unknown</text>
<circle cx="508" cy="570" r="6" fill="#58a6ff"/>
<text x="520" y="574" fill="#9fb3c8" font-size="12">external</text>
</svg>
